<?xml version="1.0" encoding="UTF-8"?><svg id="Layer_1" xmlns="http://www.w3.org/2000/svg" viewBox="0 0 396.5 650"><defs><style>.cls-1{fill:blue;}.cls-2{fill:#1c64f2;}</style></defs><path class="cls-1" d="m125,163.29v156.21h-.5v-150c.03-2.11.2-4.18.5-6.21Z"/><path class="cls-2" d="m125,319.5v268c0,34.52-27.98,62.5-62.5,62.5S0,622.02,0,587.5V146.5c0-2.73.18-5.43.52-8.07-.02.69-.02,1.38-.02,2.07,0,72.02,54.17,131.37,124,139.54v39.46h.5Z"/><path class="cls-2" d="m396.5,63c0,17.26-7,32.88-18.3,44.2-11.32,11.3-26.94,18.3-44.2,18.3h-53.3C273.64,58.85,219.96,6.11,152.88.5h181.12c34.52,0,62.5,27.98,62.5,62.5Z"/><path class="cls-2" d="m280.7,125.5h-142.7c-6.1,0-12-.88-17.58-2.51-3.16-7.8-7.86-14.82-13.72-20.69-7.32-7.3-16.43-12.81-26.62-15.79-2.95-7.26-4.58-15.19-4.58-23.51,0-17.26,7-32.88,18.3-44.2C105.12,7.5,120.74.5,138,.5h14.88c67.08,5.61,120.76,58.35,127.82,125Z"/><path class="cls-2" d="m152.88.5h-14.88c-17.26,0-32.88,7-44.2,18.3-11.3,11.32-18.3,26.94-18.3,44.2,0,8.32,1.63,16.25,4.58,23.51-5.58-1.63-11.48-2.51-17.58-2.51-31.77,0-58,23.7-61.98,54.39C1.64,61.77,64.1,0,141,0c4,0,7.96.17,11.88.5Z"/><path class="cls-2" d="m168.5,125.5c-22.08.25-40.29,16.56-43.5,37.79v-16.79c0-8.32-1.63-16.25-4.58-23.51,5.58,1.63,11.48,2.51,17.58,2.51h30.5Z"/><path class="cls-2" d="m125,146.5v16.79c-.3,2.03-.47,4.1-.5,6.21v110.54C54.67,271.87.5,212.52.5,140.5c0-.69,0-1.38.02-2.07v-.04c3.98-30.69,30.21-54.39,61.98-54.39,6.1,0,12,.88,17.58,2.51,7.12,17.54,21.98,31.11,40.34,36.48,2.95,7.26,4.58,15.19,4.58,23.51Z"/><path class="cls-2" d="m120.42,122.99c-18.36-5.37-33.22-18.94-40.34-36.48,10.19,2.98,19.3,8.49,26.62,15.79,5.86,5.87,10.56,12.89,13.72,20.69Z"/><path class="cls-2" d="m349.99,283.5h-142.7c-6.1,0-12,.88-17.58,2.51-3.16,7.8-7.86,14.82-13.72,20.69-7.32,7.3-16.43,12.81-26.62,15.79-2.95,7.26-4.58,15.19-4.58,23.51,0,17.26,7,32.88,18.3,44.2,11.32,11.3,26.94,18.3,44.2,18.3h14.88c67.08-5.61,120.76-58.35,127.82-125Z"/><path class="cls-2" d="m189.71,286.01c-18.36,5.37-33.22,18.94-40.34,36.48,10.19-2.98,19.3-8.49,26.62-15.79,5.86-5.87,10.56-12.89,13.72-20.69Z"/></svg>