<?xml version="1.0" encoding="UTF-8"?><svg id="a" xmlns="http://www.w3.org/2000/svg" viewBox="0 0 516.44 656.39"><defs><style>.b{fill:#1c64f2;}</style></defs><path class="b" d="m207.29,283.5c-6.1,0-12,.88-17.58,2.51-18.36,5.37-33.22,18.94-40.34,36.48-2.95,7.26-4.58,15.19-4.58,23.51,0,17.26,7,32.88,18.3,44.2,11.32,11.3,26.94,18.3,44.2,18.3h14.88c67.08-5.61,120.76-58.35,127.82-125h-142.7Z"/><path class="b" d="m334,.5h-181.12c-3.92-.33-7.88-.5-11.88-.5C64.1,0,1.64,61.77.52,138.39v.04c-.34,2.64-.52,5.34-.52,8.07v441c0,34.52,27.98,62.5,62.5,62.5s62.5-27.98,62.5-62.5V163.29c3.21-21.23,21.42-37.54,43.5-37.79h165.5c17.26,0,32.88-7,44.2-18.3,11.3-11.32,18.3-26.94,18.3-44.2,0-34.52-27.98-62.5-62.5-62.5Z"/></svg>